#!OML:ASF E:\Steps\Project 1\Capture day 1\Session 2\Subject.ASF
:FULLY-SPECIFIED
:DEGREES
70
root -1.08502 17.9846 20.8767 -154.169 3.08599 178.107
lowerback -27.4835 -3.65056 -6.64814
upperback 0.525374 -2.27128 -0.0789067
thorax 15.5453 -1.35917 2.71208
lowerneck -0.527807 -8.20123 -1.13781
upperneck 21.2799 -9.89362 0.63721
head 6.65899 -4.26638 -0.125067
rclavicle 1.00386e-014 8.34896e-015
rhumerus -36.8924 -14.7101 -81.7002
rradius 33.7132
rwrist -2.94675
rhand -10.3404 -56.2123
rfingers 7.12502
rthumb 15.6559 -85.5989
lclavicle 1.00386e-014 8.34896e-015
lhumerus -28.0428 3.73694 81.2219
lradius 23.9068
lwrist -2.84051
lhand -24.2133 -12.7193
lfingers 7.12502
lthumb 2.27139 17.2484
rfemur -24.6023 7.41536 18.8012
rtibia 7.40685
rfoot -17.2246 -1.32938
rtoes -36.6776
lfemur -23.4564 -6.53798 -23.277
ltibia 6.8295
lfoot -7.26665 0.00743456
ltoes -37.9493
71
root -1.08488 17.9848 20.8744 -154.185 3.03955 178.049
lowerback -27.5018 -3.66608 -6.66734
upperback 0.553107 -2.27705 -0.119159
thorax 15.5859 -1.36308 2.67503
lowerneck -0.590983 -8.23212 -1.04861
upperneck 21.3341 -9.93193 0.579126
head 6.6798 -4.2807 -0.163259
rclavicle 5.56597e-015 2.06736e-014
rhumerus -36.918 -14.8064 -81.677
rradius 33.8028
rwrist -2.64738
rhand -11.103 -54.1408
rfingers 7.12502
rthumb 14.9213 -83.5834
lclavicle 5.56597e-015 2.06736e-014
lhumerus -27.9788 3.87591 81.1499
lradius 23.8614
lwrist -2.98658
lhand -24.2147 -12.7785
lfingers 7.12502
lthumb 2.26999 17.1892
rfemur -24.5443 7.39398 18.7425
rtibia 7.34472
rfoot -17.1688 -1.31998
rtoes -36.6755
lfemur -23.4438 -6.7158 -23.3065
ltibia 6.85943
lfoot -7.27172 0.0881606
ltoes -38.1504
72
root -1.08505 17.9837 20.8703 -154.165 3.0272 178.067
lowerback -27.5809 -3.67854 -6.67462
upperback 0.568392 -2.29166 -0.0785805
thorax 15.6461 -1.37373 2.71482
lowerneck -0.577085 -8.28339 -1.0275
upperneck 21.3061 -9.99387 0.508185
head 6.6641 -4.3167 -0.191592
rclavicle 1.39149e-014 -3.18055e-015
rhumerus -36.8984 -14.6524 -81.7115
rradius 33.7709
rwrist -3.09314
rhand -10.339 -56.3397
rfingers 7.12502
rthumb 15.6572 -85.7261
lclavicle 1.39149e-014 -3.18055e-015
lhumerus -27.9385 4.07933 81.131
lradius 23.8243
lwrist -2.87289
lhand -23.9035 -12.9937
lfingers 7.12502
lthumb 2.57055 16.9706
rfemur -24.515 7.21057 18.8042
rtibia 7.29575
rfoot -17.2028 -1.13739
rtoes -36.5479
lfemur -23.4168 -6.85618 -23.2553
ltibia 6.81145
lfoot -7.28425 0.240644
ltoes -38.0227
73
root -1.08363 17.9847 20.8703 -154.186 2.97563 178.081
lowerback -27.5473 -3.67897 -6.66893
upperback 0.5696 -2.29929 -0.0716251
thorax 15.6322 -1.37734 2.71727
lowerneck -0.506087 -8.34655 -0.94129
upperneck 21.23 -10.078 0.442954
head 6.61991 -4.35951 -0.226135
rclavicle -1.80894e-014 1.86858e-014
rhumerus -36.9188 -14.7364 -81.6485
rradius 33.8435
rwrist -2.53628
rhand -10.453 -54.9927
rfingers 7.12502
rthumb 15.5474 -84.3877
lclavicle -1.80894e-014 1.86858e-014
lhumerus -27.9556 4.06425 81.0654
lradius 23.9089
lwrist -2.46575
lhand -23.2725 -13.1746
lfingers 7.12502
lthumb 3.17994 16.7814
rfemur -24.45 7.08539 18.8676
rtibia 7.24918
rfoot -17.2213 -1.06917
rtoes -36.5493
lfemur -23.4023 -6.83483 -23.2285
ltibia 6.81354
lfoot -7.25434 0.232459
ltoes -37.2182
74
root -1.08309 17.9855 20.8684 -154.248 3.00152 178.064
lowerback -27.4631 -3.65397 -6.69912
upperback 0.550423 -2.26178 -0.08401
thorax 15.5654 -1.36084 2.73796
lowerneck -0.428854 -8.37976 -0.92804
upperneck 21.2147 -10.1153 0.42006
head 6.60016 -4.3774 -0.23374
rclavicle 8.94531e-015 -2.22639e-014
rhumerus -37.0429 -14.7655 -81.5976
rradius 33.9033
rwrist -2.35285
rhand -10.4813 -55.2983
rfingers 7.12502
rthumb 15.5201 -84.6954
lclavicle 8.94531e-015 -2.22639e-014
lhumerus -28.0319 4.06103 81.0283
lradius 24.004
lwrist -2.3339
lhand -22.8285 -13.0942
lfingers 7.12502
lthumb 3.60872 16.855
rfemur -24.3853 7.18373 18.8311
rtibia 7.26745
rfoot -17.2609 -1.14699
rtoes -36.7402
lfemur -23.3304 -6.77709 -23.2694
ltibia 6.82633
lfoot -7.21175 0.169435
ltoes -36.4386
75
root -1.08242 17.9832 20.8687 -154.157 2.9762 178.013
lowerback -27.4917 -3.67158 -6.73677
upperback 0.488559 -2.25997 -0.100496
thorax 15.5064 -1.35521 2.74182
lowerneck -0.420058 -8.39636 -0.927484
upperneck 21.2851 -10.1242 0.391055
head 6.61988 -4.37899 -0.244101
rclavicle -1.20265e-014 -8.34896e-015
rhumerus -37.1232 -14.6781 -81.6141
rradius 33.9027
rwrist -2.50302
rhand -10.5962 -55.2698
rfingers 7.12502
rthumb 15.4095 -84.6755
lclavicle -1.20265e-014 -8.34896e-015
lhumerus -28.1102 4.10475 81.0011
lradius 24.0776
lwrist -2.34338
lhand -22.6673 -12.9317
lfingers 7.12502
lthumb 3.76436 17.0148
rfemur -24.5079 7.22721 18.7536
rtibia 7.30607
rfoot -17.3289 -1.268
rtoes -36.8083
lfemur -23.4531 -6.74242 -23.3265
ltibia 6.8658
lfoot -7.17836 -0.00411614
ltoes -36.6282
76
root -1.08315 17.9815 20.8654 -154.153 2.97805 178.003
lowerback -27.5319 -3.65847 -6.71344
upperback 0.502319 -2.24105 -0.130597
thorax 15.5379 -1.34448 2.70227
lowerneck -0.520522 -8.36346 -0.830649
upperneck 21.4213 -10.0565 0.273648
head 6.66851 -4.34068 -0.298571
rclavicle 7.7526e-015 7.95139e-016
rhumerus -37.112 -14.504 -81.7375
rradius 33.9514
rwrist -2.80996
rhand -9.44727 -57.8767
rfingers 7.12502
rthumb 16.5159 -87.1937
lclavicle 7.7526e-015 7.95139e-016
lhumerus -28.1312 4.09447 80.9812
lradius 24.1455
lwrist -2.28138
lhand -22.8022 -13.0184
lfingers 7.12502
lthumb 3.63412 16.9303
rfemur -24.4826 7.06721 18.7753
rtibia 7.26533
rfoot -17.3537 -1.10739
rtoes -36.7394
lfemur -23.4091 -6.85659 -23.3256
ltibia 6.77762
lfoot -7.18382 0.0992488
ltoes -37.4734
